# xmcd
#
# Track frame offsets: 
#        150
#        12625
#        24268
#        37561
#        48198
#        67419
#        78787
#        90253
#        98700
#        111608
#        129127
#        147151
#        157618
#
# Disc length: 2284 seconds
#
# Revision: 9
# Processed by: cddbd v1.5.2PL0 Copyright (c) Steve Scherf et al.
# Submitted via: ExactAudioCopyFreeDBPlugin 1.0
#
DISCID=9008ea0d
DTITLE=Nina Simone - Sings The Blues
DYEAR=1967
DGENRE=Blues
TTITLE0=Do I Move You?
TTITLE1=Day And Night
TTITLE2=In The Dark
TTITLE3=Real Real
TTITLE4=My Man's Gone Now
TTITLE5=Backlash Blues
TTITLE6=I Want A Little Sugar In My Bowl
TTITLE7=Buck
TTITLE8=Since I Fell For You
TTITLE9=The House Of The Rising Sun
TTITLE10=Blues For Mama
TTITLE11=Do I Move You? [version II]
TTITLE12=Whatever I Am (You Made Me)
EXTD=YEAR: 1967
EXTT0=
EXTT1=
EXTT2=
EXTT3=
EXTT4=
EXTT5=
EXTT6=
EXTT7=
EXTT8=
EXTT9=
EXTT10=
EXTT11=
EXTT12=
PLAYORDER=
